<svg id="Layer_1" data-name="Layer 1" xmlns="http://www.w3.org/2000/svg" xmlns:xlink="http://www.w3.org/1999/xlink" viewBox="0 0 100 100"><defs><style>.cls-1,.cls-2{fill-rule:evenodd;}.cls-1{fill:url(#linear-gradient);}.cls-2{fill:url(#linear-gradient-2);}</style><linearGradient id="linear-gradient" x1="10.3" y1="7.05" x2="74.7" y2="91.19" gradientUnits="userSpaceOnUse"><stop offset="0" stop-color="#1402c8"/><stop offset="0.05" stop-color="#1f03c6"/><stop offset="0.71" stop-color="#ab0ea5"/><stop offset="1" stop-color="#e31298"/></linearGradient><linearGradient id="linear-gradient-2" x1="17.75" y1="1.34" x2="82.15" y2="85.48" xlink:href="#linear-gradient"/></defs><path class="cls-1" d="M24.94,56.58,14.51,74.64a.67.67,0,0,0,0,.67L25.75,94.78a.66.66,0,0,0,.59.34H77.66a.65.65,0,0,0,.58-.34l7.25-12.56a.67.67,0,0,0,0-.67.65.65,0,0,0-.58-.34H36.08a.64.64,0,0,1-.58-.34l-3.25-5.61a.69.69,0,0,1,0-.68l2.37-4.1a.65.65,0,0,1,.58-.33H92.07a.68.68,0,0,0,.59-.34l7.25-12.56a.68.68,0,0,0-.59-1H25.52a.65.65,0,0,0-.58.34Z"/><path class="cls-2" d="M99.91,42.75,92.66,30.19a.68.68,0,0,0-.59-.34H28.76a.68.68,0,0,1-.59-1l5.61-9.71a.65.65,0,0,1,.59-.34H84.91a.67.67,0,0,0,.58-.34.69.69,0,0,0,0-.68L78.24,5.22a.65.65,0,0,0-.58-.34H26.34a.66.66,0,0,0-.59.34L.09,49.66a.69.69,0,0,0,0,.68L7.34,62.89a.66.66,0,0,0,.59.34.64.64,0,0,0,.58-.34L19.37,44.1a.64.64,0,0,1,.58-.34H99.32a.65.65,0,0,0,.59-.34.67.67,0,0,0,0-.67Z"/></svg>